MeshVersionFormatted 1
Dimension
3
Vertices
125
0 0 0 0
0.25 0 0 0
0.5 0 0 0
0.75 0 0 0
1 0 0 0
0 0.25 0 0
0.25 0.25 0 0
0.5 0.25 0 0
0.75 0.25 0 0
1 0.25 0 0
0 0.5 0 0
0.25 0.5 0 0
0.5 0.5 0 0
0.75 0.5 0 0
1 0.5 0 0
0 0.75 0 0
0.25 0.75 0 0
0.5 0.75 0 0
0.75 0.75 0 0
1 0.75 0 0
0 1 0 0
0.25 1 0 0
0.5 1 0 0
0.75 1 0 0
1 1 0 0
0 0 0.25 0
0.25 0 0.25 0
0.5 0 0.25 0
0.75 0 0.25 0
1 0 0.25 0
0 0.25 0.25 0
0.25 0.25 0.25 0
0.5 0.25 0.25 0
0.75 0.25 0.25 0
1 0.25 0.25 0
0 0.5 0.25 0
0.25 0.5 0.25 0
0.5 0.5 0.25 0
0.75 0.5 0.25 0
1 0.5 0.25 0
0 0.75 0.25 0
0.25 0.75 0.25 0
0.5 0.75 0.25 0
0.75 0.75 0.25 0
1 0.75 0.25 0
0 1 0.25 0
0.25 1 0.25 0
0.5 1 0.25 0
0.75 1 0.25 0
1 1 0.25 0
0 0 0.5 0
0.25 0 0.5 0
0.5 0 0.5 0
0.75 0 0.5 0
1 0 0.5 0
0 0.25 0.5 0
0.25 0.25 0.5 0
0.5 0.25 0.5 0
0.75 0.25 0.5 0
1 0.25 0.5 0
0 0.5 0.5 0
0.25 0.5 0.5 0
0.5 0.5 0.5 0
0.75 0.5 0.5 0
1 0.5 0.5 0
0 0.75 0.5 0
0.25 0.75 0.5 0
0.5 0.75 0.5 0
0.75 0.75 0.5 0
1 0.75 0.5 0
0 1 0.5 0
0.25 1 0.5 0
0.5 1 0.5 0
0.75 1 0.5 0
1 1 0.5 0
0 0 0.75 0
0.25 0 0.75 0
0.5 0 0.75 0
0.75 0 0.75 0
1 0 0.75 0
0 0.25 0.75 0
0.25 0.25 0.75 0
0.5 0.25 0.75 0
0.75 0.25 0.75 0
1 0.25 0.75 0
0 0.5 0.75 0
0.25 0.5 0.75 0
0.5 0.5 0.75 0
0.75 0.5 0.75 0
1 0.5 0.75 0
0 0.75 0.75 0
0.25 0.75 0.75 0
0.5 0.75 0.75 0
0.75 0.75 0.75 0
1 0.75 0.75 0
0 1 0.75 0
0.25 1 0.75 0
0.5 1 0.75 0
0.75 1 0.75 0
1 1 0.75 0
0 0 1 0
0.25 0 1 0
0.5 0 1 0
0.75 0 1 0
1 0 1 0
0 0.25 1 0
0.25 0.25 1 0
0.5 0.25 1 0
0.75 0.25 1 0
1 0.25 1 0
0 0.5 1 0
0.25 0.5 1 0
0.5 0.5 1 0
0.75 0.5 1 0
1 0.5 1 0
0 0.75 1 0
0.25 0.75 1 0
0.5 0.75 1 0
0.75 0.75 1 0
1 0.75 1 0
0 1 1 0
0.25 1 1 0
0.5 1 1 0
0.75 1 1 0
1 1 1 0
Hexahedra
64
1 2 7 6 26 27 32 31 0
2 3 8 7 27 28 33 32 0
3 4 9 8 28 29 34 33 0
4 5 10 9 29 30 35 34 0
6 7 12 11 31 32 37 36 0
7 8 13 12 32 33 38 37 0
8 9 14 13 33 34 39 38 0
9 10 15 14 34 35 40 39 0
11 12 17 16 36 37 42 41 0
12 13 18 17 37 38 43 42 0
13 14 19 18 38 39 44 43 0
14 15 20 19 39 40 45 44 0
16 17 22 21 41 42 47 46 0
17 18 23 22 42 43 48 47 0
18 19 24 23 43 44 49 48 0
19 20 25 24 44 45 50 49 0
26 27 32 31 51 52 57 56 0
27 28 33 32 52 53 58 57 0
28 29 34 33 53 54 59 58 0
29 30 35 34 54 55 60 59 0
31 32 37 36 56 57 62 61 0
32 33 38 37 57 58 63 62 0
33 34 39 38 58 59 64 63 0
34 35 40 39 59 60 65 64 0
36 37 42 41 61 62 67 66 0
37 38 43 42 62 63 68 67 0
38 39 44 43 63 64 69 68 0
39 40 45 44 64 65 70 69 0
41 42 47 46 66 67 72 71 0
42 43 48 47 67 68 73 72 0
43 44 49 48 68 69 74 73 0
44 45 50 49 69 70 75 74 0
51 52 57 56 76 77 82 81 0
52 53 58 57 77 78 83 82 0
53 54 59 58 78 79 84 83 0
54 55 60 59 79 80 85 84 0
56 57 62 61 81 82 87 86 0
57 58 63 62 82 83 88 87 0
58 59 64 63 83 84 89 88 0
59 60 65 64 84 85 90 89 0
61 62 67 66 86 87 92 91 0
62 63 68 67 87 88 93 92 0
63 64 69 68 88 89 94 93 0
64 65 70 69 89 90 95 94 0
66 67 72 71 91 92 97 96 0
67 68 73 72 92 93 98 97 0
68 69 74 73 93 94 99 98 0
69 70 75 74 94 95 100 99 0
76 77 82 81 101 102 107 106 0
77 78 83 82 102 103 108 107 0
78 79 84 83 103 104 109 108 0
79 80 85 84 104 105 110 109 0
81 82 87 86 106 107 112 111 0
82 83 88 87 107 108 113 112 0
83 84 89 88 108 109 114 113 0
84 85 90 89 109 110 115 114 0
86 87 92 91 111 112 117 116 0
87 88 93 92 112 113 118 117 0
88 89 94 93 113 114 119 118 0
89 90 95 94 114 115 120 119 0
91 92 97 96 116 117 122 121 0
92 93 98 97 117 118 123 122 0
93 94 99 98 118 119 124 123 0
94 95 100 99 119 120 125 124 0
End
